<svg width="91" height="31" viewBox="0 0 91 31" fill="none" xmlns="http://www.w3.org/2000/svg">
<path d="M5.92 9.292L9.648 0.299999H11.52L6.768 11.5H5.072L0.32 0.299999H2.192L5.92 9.292ZM12.7238 0.188H14.4518V11.5H12.7238V0.188ZM19.9361 11.66C18.9761 11.66 17.9841 11.292 17.1681 10.604C16.3521 9.916 15.8081 8.732 15.8081 7.34C15.8081 5.948 16.3521 4.764 17.1681 4.076C17.9841 3.388 18.9761 3.02 19.9361 3.02C21.2641 3.02 22.3201 3.756 22.7041 4.54H22.8001V3.18H24.5281V11.5H22.8001V10.14H22.7041C22.3201 10.924 21.2641 11.66 19.9361 11.66ZM20.1601 10.124C20.8801 10.124 21.5041 9.884 22.0321 9.388C22.5761 8.892 22.8481 8.22 22.8481 7.34C22.8481 6.46 22.5761 5.788 22.0321 5.292C21.5041 4.796 20.8801 4.556 20.1601 4.556C19.4561 4.556 18.8321 4.796 18.2881 5.292C17.7601 5.788 17.4881 6.46 17.4881 7.34C17.4881 8.22 17.7601 8.892 18.2881 9.388C18.8321 9.884 19.4561 10.124 20.1601 10.124ZM32.7343 4.54V0.188H34.4623V11.5H32.7343V10.14H32.6383C32.2543 10.924 31.1983 11.66 29.8703 11.66C28.9103 11.66 27.9183 11.292 27.1023 10.604C26.2863 9.916 25.7423 8.732 25.7423 7.34C25.7423 5.948 26.2863 4.764 27.1023 4.076C27.9183 3.388 28.9103 3.02 29.8703 3.02C31.1983 3.02 32.2543 3.756 32.6383 4.54H32.7343ZM30.0943 10.124C30.8143 10.124 31.4383 9.884 31.9663 9.388C32.5103 8.892 32.7823 8.22 32.7823 7.34C32.7823 6.46 32.5103 5.788 31.9663 5.292C31.4383 4.796 30.8143 4.556 30.0943 4.556C29.3903 4.556 28.7663 4.796 28.2223 5.292C27.6943 5.788 27.4223 6.46 27.4223 7.34C27.4223 8.22 27.6943 8.892 28.2223 9.388C28.7663 9.884 29.3903 10.124 30.0943 10.124ZM36.2238 0.188H37.9518V1.852H36.2238V0.188ZM36.2238 3.18H37.9518V11.5H36.2238V3.18ZM45.1641 4.988L43.7241 5.388C43.4361 4.732 42.9721 4.412 42.3481 4.412C41.6921 4.412 41.2121 4.78 41.2121 5.34C41.2121 5.804 41.5321 6.156 42.1721 6.38L43.0841 6.7C44.6681 7.26 45.4681 7.82 45.4681 9.148C45.4681 9.932 45.1641 10.556 44.5561 11.004C43.9641 11.436 43.2281 11.66 42.3641 11.66C40.7161 11.66 39.5481 10.812 39.2281 9.388L40.6041 8.972C40.8601 9.74 41.5161 10.268 42.3641 10.268C43.1481 10.268 43.7881 9.82 43.7881 9.18C43.7881 8.716 43.4201 8.348 42.7001 8.076L41.7561 7.74C40.2841 7.212 39.5481 6.412 39.5481 5.324C39.5481 4.636 39.8041 4.092 40.3321 3.66C40.8601 3.228 41.5161 3.02 42.2841 3.02C43.6921 3.02 44.7001 3.772 45.1641 4.988ZM46.8331 0.188H48.5611V11.5H46.8331V0.188ZM54.0455 11.66C53.0855 11.66 52.0935 11.292 51.2775 10.604C50.4615 9.916 49.9175 8.732 49.9175 7.34C49.9175 5.948 50.4615 4.764 51.2775 4.076C52.0935 3.388 53.0855 3.02 54.0455 3.02C55.3735 3.02 56.4295 3.756 56.8135 4.54H56.9095V3.18H58.6375V11.5H56.9095V10.14H56.8135C56.4295 10.924 55.3735 11.66 54.0455 11.66ZM54.2695 10.124C54.9895 10.124 55.6135 9.884 56.1415 9.388C56.6855 8.892 56.9575 8.22 56.9575 7.34C56.9575 6.46 56.6855 5.788 56.1415 5.292C55.6135 4.796 54.9895 4.556 54.2695 4.556C53.5655 4.556 52.9415 4.796 52.3975 5.292C51.8695 5.788 51.5975 6.46 51.5975 7.34C51.5975 8.22 51.8695 8.892 52.3975 9.388C52.9415 9.884 53.5655 10.124 54.2695 10.124ZM66.9396 3.18H68.7156L65.0836 11.5H63.5476L59.9156 3.18H61.6916L64.3156 9.372L66.9396 3.18ZM2.72 19.3V28.868H7.472V30.5H0.96V19.3H2.72ZM12.8134 22.02C14.7014 22.02 17.2454 23.46 16.8614 26.98H10.2854C10.5414 28.404 11.6294 29.188 13.0214 29.188C13.9014 29.188 14.6694 28.932 15.3254 28.42L16.3014 29.348C15.5174 30.228 14.4134 30.66 12.9734 30.66C12.2534 30.66 11.5654 30.516 10.9094 30.212C9.61338 29.588 8.58938 28.196 8.58938 26.356C8.58938 24.964 9.16537 23.78 9.99738 23.092C10.8454 22.404 11.8534 22.02 12.8134 22.02ZM12.8134 23.508C11.6614 23.508 10.5574 24.308 10.3014 25.7H15.3094C15.2294 25.012 14.9414 24.468 14.4454 24.084C13.9494 23.7 13.4054 23.508 12.8134 23.508ZM24.7186 23.54V19.188H26.4466V30.5H24.7186V29.14H24.6226C24.2386 29.924 23.1826 30.66 21.8546 30.66C20.8946 30.66 19.9026 30.292 19.0866 29.604C18.2706 28.916 17.7266 27.732 17.7266 26.34C17.7266 24.948 18.2706 23.764 19.0866 23.076C19.9026 22.388 20.8946 22.02 21.8546 22.02C23.1826 22.02 24.2386 22.756 24.6226 23.54H24.7186ZM22.0786 29.124C22.7986 29.124 23.4226 28.884 23.9506 28.388C24.4946 27.892 24.7666 27.22 24.7666 26.34C24.7666 25.46 24.4946 24.788 23.9506 24.292C23.4226 23.796 22.7986 23.556 22.0786 23.556C21.3746 23.556 20.7506 23.796 20.2066 24.292C19.6786 24.788 19.4066 25.46 19.4066 26.34C19.4066 27.22 19.6786 27.892 20.2066 28.388C20.7506 28.884 21.3746 29.124 22.0786 29.124ZM31.9361 30.66C30.9761 30.66 29.9841 30.292 29.1681 29.604C28.3521 28.916 27.8081 27.732 27.8081 26.34C27.8081 24.948 28.3521 23.764 29.1681 23.076C29.9841 22.388 30.9761 22.02 31.9361 22.02C33.2641 22.02 34.3201 22.756 34.7041 23.54H34.8001V22.18H36.5281V30.5H34.8001V29.14H34.7041C34.3201 29.924 33.2641 30.66 31.9361 30.66ZM32.1601 29.124C32.8801 29.124 33.5041 28.884 34.0321 28.388C34.5761 27.892 34.8481 27.22 34.8481 26.34C34.8481 25.46 34.5761 24.788 34.0321 24.292C33.5041 23.796 32.8801 23.556 32.1601 23.556C31.4561 23.556 30.8321 23.796 30.2881 24.292C29.7601 24.788 29.4881 25.46 29.4881 26.34C29.4881 27.22 29.7601 27.892 30.2881 28.388C30.8321 28.884 31.4561 29.124 32.1601 29.124ZM43.7423 23.988L42.3023 24.388C42.0143 23.732 41.5503 23.412 40.9263 23.412C40.2703 23.412 39.7903 23.78 39.7903 24.34C39.7903 24.804 40.1103 25.156 40.7503 25.38L41.6623 25.7C43.2463 26.26 44.0463 26.82 44.0463 28.148C44.0463 28.932 43.7423 29.556 43.1343 30.004C42.5423 30.436 41.8063 30.66 40.9423 30.66C39.2943 30.66 38.1263 29.812 37.8063 28.388L39.1823 27.972C39.4383 28.74 40.0943 29.268 40.9423 29.268C41.7263 29.268 42.3663 28.82 42.3663 28.18C42.3663 27.716 41.9983 27.348 41.2783 27.076L40.3343 26.74C38.8623 26.212 38.1263 25.412 38.1263 24.324C38.1263 23.636 38.3823 23.092 38.9103 22.66C39.4383 22.228 40.0943 22.02 40.8623 22.02C42.2703 22.02 43.2783 22.772 43.7423 23.988ZM50.0033 22.02C50.8673 22.02 51.6033 22.324 52.2113 22.948C52.8193 23.572 53.1233 24.484 53.1233 25.684V30.5H51.3953V25.78C51.3953 24.292 50.5633 23.54 49.4113 23.54C48.7713 23.54 48.2433 23.764 47.8273 24.212C47.4273 24.644 47.1873 25.092 47.1393 25.524V30.5H45.4113V19.188H47.1393V23.908C47.3153 23.428 48.1793 22.02 50.0033 22.02ZM58.7059 22.02C60.3219 22.02 61.5059 22.692 62.2579 24.036L60.9139 24.644C60.3859 23.924 59.6499 23.556 58.7219 23.556C58.0339 23.556 57.4259 23.812 56.8819 24.308C56.3539 24.804 56.0819 25.476 56.0819 26.356C56.0819 27.22 56.3539 27.892 56.8819 28.388C57.4259 28.884 58.0339 29.124 58.7219 29.124C59.6659 29.124 60.3859 28.772 60.9139 28.052L62.2739 28.66C61.5219 29.988 60.3219 30.66 58.7059 30.66C56.8179 30.66 54.3859 29.252 54.4019 26.356C54.4019 24.964 54.9939 23.78 55.8419 23.092C56.7219 22.404 57.7299 22.02 58.7059 22.02ZM68.222 22.02C69.086 22.02 69.822 22.324 70.43 22.948C71.038 23.572 71.342 24.484 71.342 25.684V30.5H69.614V25.78C69.614 24.292 68.782 23.54 67.63 23.54C66.99 23.54 66.462 23.764 66.046 24.212C65.646 24.644 65.406 25.092 65.358 25.524V30.5H63.63V19.188H65.358V23.908C65.534 23.428 66.398 22.02 68.222 22.02ZM76.8446 22.02C78.7326 22.02 81.2766 23.46 80.8926 26.98H74.3166C74.5726 28.404 75.6606 29.188 77.0526 29.188C77.9326 29.188 78.7006 28.932 79.3566 28.42L80.3326 29.348C79.5486 30.228 78.4446 30.66 77.0046 30.66C76.2846 30.66 75.5966 30.516 74.9406 30.212C73.6446 29.588 72.6206 28.196 72.6206 26.356C72.6206 24.964 73.1966 23.78 74.0286 23.092C74.8766 22.404 75.8846 22.02 76.8446 22.02ZM76.8446 23.508C75.6926 23.508 74.5886 24.308 74.3326 25.7H79.3406C79.2606 25.012 78.9726 24.468 78.4766 24.084C77.9806 23.7 77.4366 23.508 76.8446 23.508ZM88.8459 22.18H90.6219L86.9899 30.5H85.4539L81.8219 22.18H83.5979L86.2219 28.372L88.8459 22.18Z" fill="#1B1C24"/>
</svg>
