<svg width="143" height="37" viewBox="0 0 143 37" fill="none" xmlns="http://www.w3.org/2000/svg">
<path d="M6.39331 11.0593L10.6494 0.324968H12.7866L7.36144 13.6951H5.42518L0 0.324968H2.13719L6.39331 11.0593Z" fill="#1B1C24"/>
<path d="M16.2616 0.324968V11.7469H21.6867V13.6951H14.2522V0.324968H16.2616Z" fill="#1B1C24"/>
<path d="M35.5663 13.6951H33.4292L32.3149 10.8683H26.0312L24.9169 13.6951H22.7797L28.2049 0.324968H30.1412L35.5663 13.6951ZM29.173 2.9608L26.7253 9.13016H31.6208L29.173 2.9608Z" fill="#1B1C24"/>
<path d="M37.032 0.324968H52.5768C54.4218 0.324968 55.9562 0.974376 57.18 2.25409C58.4221 3.5338 59.0432 5.11912 59.0432 6.97184C59.0432 8.86276 58.4221 10.4481 57.18 11.7469C55.9562 13.0457 54.4218 13.6951 52.5768 13.6951H37.032V0.324968ZM39.0413 11.7087H52.5586C53.9286 11.7087 55.0063 11.2503 55.7918 10.3526C56.5955 9.45486 56.9973 8.32795 56.9973 6.97184C56.9973 5.65392 56.5955 4.54611 55.7918 3.6484C54.988 2.75069 53.9103 2.31139 52.5586 2.31139H39.0413V11.7087Z" fill="#1B1C24"/>
<path d="M60.8642 0.324968H62.8735V13.6951H60.8642V0.324968Z" fill="#1B1C24"/>
<path d="M69.111 0.133966C71.1385 0.133966 72.5816 1.37548 73.2575 2.9226L71.7596 3.8203C71.0837 2.61699 70.207 2.00579 69.1292 2.00579C67.9054 2.00579 67.0834 2.69339 67.0834 3.763C67.0834 4.58431 67.6862 5.21462 68.8735 5.69212L69.7685 6.03593C72.4537 7.04824 73.6045 8.09875 73.6045 9.98967C73.6045 11.193 73.1661 12.1289 72.2711 12.8356C71.376 13.5423 70.3531 13.8861 69.184 13.8861C68.0698 13.8861 67.1016 13.5805 66.2614 12.9693C65.4394 12.3581 64.8914 11.575 64.6174 10.6009L66.1883 9.76047C66.6815 11.0784 67.7227 11.9761 69.184 11.9761C70.554 11.9761 71.5221 11.2312 71.5221 9.95147C71.5221 8.88186 70.9011 8.46165 69.2388 7.79315L68.362 7.44934C66.2431 6.62803 65.0923 5.55842 65.0923 3.7057C65.0923 2.63609 65.4759 1.77658 66.2431 1.12718C67.0103 0.45867 67.9602 0.133966 69.111 0.133966Z" fill="#1B1C24"/>
<path d="M77.3405 0.324968V11.7469H82.7657V13.6951H75.3312V0.324968H77.3405Z" fill="#1B1C24"/>
<path d="M96.6453 13.6951H94.5081L93.3938 10.8683H87.1101L85.9959 13.6951H83.8587L89.2838 0.324968H91.2201L96.6453 13.6951ZM90.252 2.9608L87.8042 9.13016H92.6997L90.252 2.9608Z" fill="#1B1C24"/>
<path d="M103.774 11.0593L108.03 0.324968H115.875L110.45 13.6951H102.805L100.093 7.01004L97.3802 0.324968H99.5174L103.774 11.0593Z" fill="#1B1C24"/>
<path d="M2.73999 23.3049V34.7268H8.16517V36.675H0.730664V23.3049H2.73999Z" fill="#1B1C24"/>
<path d="M11.9982 30.9068V34.7268H17.7887V36.675H9.98883V23.3049H17.6243V25.2531H11.9982V28.9968H16.3273V30.9068H11.9982Z" fill="#1B1C24"/>
<path d="M19.7108 23.3049H23.8391C25.684 23.3049 27.2184 23.9543 28.4422 25.234C29.6844 26.5137 30.3054 28.099 30.3054 29.9518C30.3054 31.8427 29.6844 33.428 28.4422 34.7268C27.2184 36.0256 25.684 36.675 23.8391 36.675H19.7108V23.3049ZM21.7201 34.6886H23.8208C25.1908 34.6886 26.2685 34.2302 27.054 33.3325C27.8577 32.4348 28.2596 31.3079 28.2596 29.9518C28.2596 28.6338 27.8577 27.526 27.054 26.6283C26.2502 25.7306 25.1725 25.2913 23.8208 25.2913H21.7201V34.6886Z" fill="#1B1C24"/>
<path d="M44.1712 36.675H42.034L40.9197 33.8482H34.6472L33.5329 36.675H31.3957L36.8209 23.3049H38.746L44.1712 36.675ZM37.9452 25.9407L35.3413 32.1101H40.2256L37.9452 25.9407Z" fill="#1B1C24"/>
<path d="M49.6737 23.1139C51.7013 23.1139 53.1444 24.3554 53.8202 25.9025L52.3224 26.8002C51.6465 25.5969 50.7697 24.9857 49.692 24.9857C48.4681 24.9857 47.6461 25.6733 47.6461 26.7429C47.6461 27.5642 48.2489 28.1945 49.4363 28.672L50.3313 29.0159C53.0165 30.0282 54.1673 31.0787 54.1673 32.9696C54.1673 34.1729 53.7289 35.1088 52.8338 35.8155C51.9388 36.5222 50.9159 36.866 49.7468 36.866C48.6325 36.866 47.6644 36.5604 46.8241 35.9492C46.0021 35.338 45.4541 34.5549 45.1801 33.5808L46.7511 32.7404C47.2443 34.0583 48.2855 34.956 49.7468 34.956C51.1168 34.956 52.0849 34.2111 52.0849 32.9314C52.0849 31.8618 51.4639 31.4416 49.8016 30.7731L48.9248 30.4293C46.8059 29.608 45.6551 28.5383 45.6551 26.6856C45.6551 25.616 46.0387 24.7565 46.8059 24.1071C47.5731 23.4386 48.5229 23.1139 49.6737 23.1139Z" fill="#1B1C24"/>
<path d="M75.2494 29.0732V23.3049H77.2587V36.675H75.2494V31.0214H57.9033V36.675H55.8939V23.3049H57.9033V29.0732H75.2494Z" fill="#1B1C24"/>
<path d="M88.8591 33.7718L90.083 35.2425C88.8957 36.3312 87.4709 36.866 85.7721 36.866C84.0002 36.866 82.4658 36.2166 81.1506 34.9178C79.8354 33.5999 79.1778 31.9573 79.1778 29.99C79.1778 28.0226 79.8354 26.38 81.1506 25.0812C82.4658 23.7633 84.0002 23.1139 85.7721 23.1139C87.4343 23.1139 88.8409 23.6487 90.0282 24.6992L88.8043 26.1508C87.9458 25.4441 86.9777 25.1003 85.9 25.1003C84.6396 25.1003 83.5436 25.5587 82.6302 26.4946C81.7169 27.4305 81.2602 28.5956 81.2602 29.99C81.2602 31.3843 81.7169 32.5494 82.6302 33.4853C83.5436 34.4212 84.6396 34.8796 85.9 34.8796C87.0142 34.8796 88.0006 34.5167 88.8591 33.7718Z" fill="#1B1C24"/>
<path d="M99.7416 29.0732V23.3049H101.751V36.675H99.7416V31.0214H93.8232V36.675H91.8139V23.3049H93.8232V29.0732H99.7416Z" fill="#1B1C24"/>
<path d="M105.953 30.9068V34.7268H123.161V36.675H103.944V23.3049H122.996V25.2531H105.953V28.9968H121.699V30.9068H105.953Z" fill="#1B1C24"/>
<path d="M130.745 34.0392L135.001 23.3049H142.847L137.422 36.675H129.777L124.352 23.3049H126.489L130.745 34.0392Z" fill="#1B1C24"/>
<path d="M130.746 34.0392L135.002 23.3049H142.84L137.447 36.675H131.714L130.746 34.0392Z" fill="#7CC9F4"/>
<path d="M103.775 11.0773L108.05 0.295237H115.911L110.452 13.698L104.748 13.7248L103.775 11.0773Z" fill="#7CF4DD"/>
</svg>
