<svg width="143" height="37" viewBox="0 0 143 37" fill="none" xmlns="http://www.w3.org/2000/svg">
<path d="M6.39331 10.9253L10.6494 0.191002H12.7866L7.36144 13.5611H5.42518L0 0.191002H2.13719L6.39331 10.9253Z" fill="#FAFAFA"/>
<path d="M16.2616 0.191002V11.6129H21.6867V13.5611H14.2522V0.191002H16.2616Z" fill="#FAFAFA"/>
<path d="M35.5663 13.5611H33.4292L32.3149 10.7343H26.0312L24.9169 13.5611H22.7797L28.2049 0.191002H30.1412L35.5663 13.5611ZM29.173 2.82683L26.7253 8.99619H31.6208L29.173 2.82683Z" fill="#FAFAFA"/>
<path d="M37.032 0.191002H52.5768C54.4218 0.191002 55.9562 0.840409 57.18 2.12012C58.4221 3.39984 59.0432 4.98515 59.0432 6.83787C59.0432 8.72879 58.4221 10.3141 57.18 11.6129C55.9562 12.9117 54.4218 13.5611 52.5768 13.5611H37.032V0.191002ZM39.0413 11.5747H52.5586C53.9286 11.5747 55.0063 11.1163 55.7918 10.2186C56.5955 9.3209 56.9973 8.19399 56.9973 6.83787C56.9973 5.51996 56.5955 4.41215 55.7918 3.51444C54.988 2.61673 53.9103 2.17742 52.5586 2.17742H39.0413V11.5747Z" fill="#FAFAFA"/>
<path d="M60.8642 0.191002H62.8735V13.5611H60.8642V0.191002Z" fill="#FAFAFA"/>
<path d="M69.111 0C71.1385 0 72.5816 1.24151 73.2575 2.78863L71.7596 3.68634C71.0837 2.48303 70.207 1.87182 69.1292 1.87182C67.9054 1.87182 67.0834 2.55943 67.0834 3.62904C67.0834 4.45035 67.6862 5.08065 68.8735 5.55816L69.7685 5.90196C72.4537 6.91427 73.6045 7.96478 73.6045 9.8557C73.6045 11.059 73.1661 11.9949 72.2711 12.7016C71.376 13.4083 70.3531 13.7521 69.184 13.7521C68.0698 13.7521 67.1016 13.4465 66.2614 12.8353C65.4394 12.2241 64.8914 11.441 64.6174 10.4669L66.1883 9.6265C66.6815 10.9444 67.7227 11.8421 69.184 11.8421C70.554 11.8421 71.5221 11.0972 71.5221 9.8175C71.5221 8.74789 70.9011 8.32769 69.2388 7.65918L68.362 7.31538C66.2431 6.49407 65.0923 5.42446 65.0923 3.57174C65.0923 2.50213 65.4759 1.64262 66.2431 0.99321C67.0103 0.324704 67.9602 0 69.111 0Z" fill="#FAFAFA"/>
<path d="M77.3405 0.191002V11.6129H82.7657V13.5611H75.3312V0.191002H77.3405Z" fill="#FAFAFA"/>
<path d="M96.6453 13.5611H94.5081L93.3938 10.7343H87.1101L85.9959 13.5611H83.8587L89.2838 0.191002H91.2201L96.6453 13.5611ZM90.252 2.82683L87.8042 8.99619H92.6997L90.252 2.82683Z" fill="#FAFAFA"/>
<path d="M103.774 10.9253L108.03 0.191002H115.875L110.45 13.5611H102.805L100.093 6.87607L97.3802 0.191002H99.5174L103.774 10.9253Z" fill="#FAFAFA"/>
<path d="M2.73999 23.1709V34.5928H8.16517V36.5411H0.730664V23.1709H2.73999Z" fill="#FAFAFA"/>
<path d="M11.9982 30.7728V34.5928H17.7887V36.5411H9.98883V23.1709H17.6243V25.1191H11.9982V28.8628H16.3273V30.7728H11.9982Z" fill="#FAFAFA"/>
<path d="M19.7108 23.1709H23.8391C25.684 23.1709 27.2184 23.8203 28.4422 25.1C29.6844 26.3798 30.3054 27.9651 30.3054 29.8178C30.3054 31.7087 29.6844 33.294 28.4422 34.5928C27.2184 35.8917 25.684 36.5411 23.8391 36.5411H19.7108V23.1709ZM21.7201 34.5546H23.8208C25.1908 34.5546 26.2685 34.0962 27.054 33.1985C27.8577 32.3008 28.2596 31.1739 28.2596 29.8178C28.2596 28.4999 27.8577 27.3921 27.054 26.4944C26.2502 25.5967 25.1725 25.1573 23.8208 25.1573H21.7201V34.5546Z" fill="#FAFAFA"/>
<path d="M44.1712 36.5411H42.034L40.9197 33.7142H34.6472L33.5329 36.5411H31.3957L36.8209 23.1709H38.746L44.1712 36.5411ZM37.9452 25.8068L35.3413 31.9761H40.2256L37.9452 25.8068Z" fill="#FAFAFA"/>
<path d="M49.6737 22.9799C51.7013 22.9799 53.1444 24.2214 53.8202 25.7686L52.3224 26.6663C51.6465 25.463 50.7697 24.8517 49.692 24.8517C48.4681 24.8517 47.6461 25.5393 47.6461 26.609C47.6461 27.4303 48.2489 28.0606 49.4363 28.5381L50.3313 28.8819C53.0165 29.8942 54.1673 30.9447 54.1673 32.8356C54.1673 34.0389 53.7289 34.9748 52.8338 35.6816C51.9388 36.3883 50.9159 36.7321 49.7468 36.7321C48.6325 36.7321 47.6644 36.4265 46.8241 35.8153C46.0021 35.204 45.4541 34.4209 45.1801 33.4468L46.7511 32.6064C47.2443 33.9243 48.2855 34.822 49.7468 34.822C51.1168 34.822 52.0849 34.0771 52.0849 32.7974C52.0849 31.7278 51.4639 31.3076 49.8016 30.6391L48.9248 30.2953C46.8059 29.474 45.6551 28.4044 45.6551 26.5517C45.6551 25.482 46.0387 24.6225 46.8059 23.9731C47.5731 23.3046 48.5229 22.9799 49.6737 22.9799Z" fill="#FAFAFA"/>
<path d="M75.2494 28.9392V23.1709H77.2587V36.5411H75.2494V30.8874H57.9033V36.5411H55.8939V23.1709H57.9033V28.9392H75.2494Z" fill="#FAFAFA"/>
<path d="M88.8591 33.6378L90.083 35.1085C88.8957 36.1973 87.4709 36.7321 85.7721 36.7321C84.0002 36.7321 82.4658 36.0827 81.1506 34.7838C79.8354 33.4659 79.1778 31.8233 79.1778 29.856C79.1778 27.8887 79.8354 26.2461 81.1506 24.9472C82.4658 23.6293 84.0002 22.9799 85.7721 22.9799C87.4343 22.9799 88.8409 23.5147 90.0282 24.5652L88.8043 26.0169C87.9458 25.3101 86.9777 24.9663 85.9 24.9663C84.6396 24.9663 83.5436 25.4248 82.6302 26.3607C81.7169 27.2966 81.2602 28.4617 81.2602 29.856C81.2602 31.2503 81.7169 32.4154 82.6302 33.3513C83.5436 34.2872 84.6396 34.7456 85.9 34.7456C87.0142 34.7456 88.0006 34.3827 88.8591 33.6378Z" fill="#FAFAFA"/>
<path d="M99.7416 28.9392V23.1709H101.751V36.5411H99.7416V30.8874H93.8232V36.5411H91.8139V23.1709H93.8232V28.9392H99.7416Z" fill="#FAFAFA"/>
<path d="M105.953 30.7728V34.5928H123.161V36.5411H103.944V23.1709H122.996V25.1191H105.953V28.8628H121.699V30.7728H105.953Z" fill="#FAFAFA"/>
<path d="M130.745 33.9052L135.001 23.1709H142.847L137.422 36.5411H129.777L124.352 23.1709H126.489L130.745 33.9052Z" fill="#FAFAFA"/>
<path d="M130.746 33.9052L135.002 23.1709H142.84L137.447 36.541H131.714L130.746 33.9052Z" fill="#7CC9F4"/>
<path d="M103.775 10.9433L108.05 0.161255H115.911L110.452 13.5641L104.748 13.5908L103.775 10.9433Z" fill="#7CF4DD"/>
</svg>
