<svg width="91" height="32" viewBox="0 0 91 32" fill="none" xmlns="http://www.w3.org/2000/svg">
<path d="M5.92 9.792L9.648 0.799999H11.52L6.768 12H5.072L0.32 0.799999H2.192L5.92 9.792ZM12.7238 0.688H14.4518V12H12.7238V0.688ZM19.9361 12.16C18.9761 12.16 17.9841 11.792 17.1681 11.104C16.3521 10.416 15.8081 9.232 15.8081 7.84C15.8081 6.448 16.3521 5.264 17.1681 4.576C17.9841 3.888 18.9761 3.52 19.9361 3.52C21.2641 3.52 22.3201 4.256 22.7041 5.04H22.8001V3.68H24.5281V12H22.8001V10.64H22.7041C22.3201 11.424 21.2641 12.16 19.9361 12.16ZM20.1601 10.624C20.8801 10.624 21.5041 10.384 22.0321 9.888C22.5761 9.392 22.8481 8.72 22.8481 7.84C22.8481 6.96 22.5761 6.288 22.0321 5.792C21.5041 5.296 20.8801 5.056 20.1601 5.056C19.4561 5.056 18.8321 5.296 18.2881 5.792C17.7601 6.288 17.4881 6.96 17.4881 7.84C17.4881 8.72 17.7601 9.392 18.2881 9.888C18.8321 10.384 19.4561 10.624 20.1601 10.624ZM32.7343 5.04V0.688H34.4623V12H32.7343V10.64H32.6383C32.2543 11.424 31.1983 12.16 29.8703 12.16C28.9103 12.16 27.9183 11.792 27.1023 11.104C26.2863 10.416 25.7423 9.232 25.7423 7.84C25.7423 6.448 26.2863 5.264 27.1023 4.576C27.9183 3.888 28.9103 3.52 29.8703 3.52C31.1983 3.52 32.2543 4.256 32.6383 5.04H32.7343ZM30.0943 10.624C30.8143 10.624 31.4383 10.384 31.9663 9.888C32.5103 9.392 32.7823 8.72 32.7823 7.84C32.7823 6.96 32.5103 6.288 31.9663 5.792C31.4383 5.296 30.8143 5.056 30.0943 5.056C29.3903 5.056 28.7663 5.296 28.2223 5.792C27.6943 6.288 27.4223 6.96 27.4223 7.84C27.4223 8.72 27.6943 9.392 28.2223 9.888C28.7663 10.384 29.3903 10.624 30.0943 10.624ZM36.2238 0.688H37.9518V2.352H36.2238V0.688ZM36.2238 3.68H37.9518V12H36.2238V3.68ZM45.1641 5.488L43.7241 5.888C43.4361 5.232 42.9721 4.912 42.3481 4.912C41.6921 4.912 41.2121 5.28 41.2121 5.84C41.2121 6.304 41.5321 6.656 42.1721 6.88L43.0841 7.2C44.6681 7.76 45.4681 8.32 45.4681 9.648C45.4681 10.432 45.1641 11.056 44.5561 11.504C43.9641 11.936 43.2281 12.16 42.3641 12.16C40.7161 12.16 39.5481 11.312 39.2281 9.888L40.6041 9.472C40.8601 10.24 41.5161 10.768 42.3641 10.768C43.1481 10.768 43.7881 10.32 43.7881 9.68C43.7881 9.216 43.4201 8.848 42.7001 8.576L41.7561 8.24C40.2841 7.712 39.5481 6.912 39.5481 5.824C39.5481 5.136 39.8041 4.592 40.3321 4.16C40.8601 3.728 41.5161 3.52 42.2841 3.52C43.6921 3.52 44.7001 4.272 45.1641 5.488ZM46.8331 0.688H48.5611V12H46.8331V0.688ZM54.0455 12.16C53.0855 12.16 52.0935 11.792 51.2775 11.104C50.4615 10.416 49.9175 9.232 49.9175 7.84C49.9175 6.448 50.4615 5.264 51.2775 4.576C52.0935 3.888 53.0855 3.52 54.0455 3.52C55.3735 3.52 56.4295 4.256 56.8135 5.04H56.9095V3.68H58.6375V12H56.9095V10.64H56.8135C56.4295 11.424 55.3735 12.16 54.0455 12.16ZM54.2695 10.624C54.9895 10.624 55.6135 10.384 56.1415 9.888C56.6855 9.392 56.9575 8.72 56.9575 7.84C56.9575 6.96 56.6855 6.288 56.1415 5.792C55.6135 5.296 54.9895 5.056 54.2695 5.056C53.5655 5.056 52.9415 5.296 52.3975 5.792C51.8695 6.288 51.5975 6.96 51.5975 7.84C51.5975 8.72 51.8695 9.392 52.3975 9.888C52.9415 10.384 53.5655 10.624 54.2695 10.624ZM66.9396 3.68H68.7156L65.0836 12H63.5476L59.9156 3.68H61.6916L64.3156 9.872L66.9396 3.68ZM2.72 19.8V29.368H7.472V31H0.96V19.8H2.72ZM12.8134 22.52C14.7014 22.52 17.2454 23.96 16.8614 27.48H10.2854C10.5414 28.904 11.6294 29.688 13.0214 29.688C13.9014 29.688 14.6694 29.432 15.3254 28.92L16.3014 29.848C15.5174 30.728 14.4134 31.16 12.9734 31.16C12.2534 31.16 11.5654 31.016 10.9094 30.712C9.61338 30.088 8.58938 28.696 8.58938 26.856C8.58938 25.464 9.16537 24.28 9.99738 23.592C10.8454 22.904 11.8534 22.52 12.8134 22.52ZM12.8134 24.008C11.6614 24.008 10.5574 24.808 10.3014 26.2H15.3094C15.2294 25.512 14.9414 24.968 14.4454 24.584C13.9494 24.2 13.4054 24.008 12.8134 24.008ZM24.7186 24.04V19.688H26.4466V31H24.7186V29.64H24.6226C24.2386 30.424 23.1826 31.16 21.8546 31.16C20.8946 31.16 19.9026 30.792 19.0866 30.104C18.2706 29.416 17.7266 28.232 17.7266 26.84C17.7266 25.448 18.2706 24.264 19.0866 23.576C19.9026 22.888 20.8946 22.52 21.8546 22.52C23.1826 22.52 24.2386 23.256 24.6226 24.04H24.7186ZM22.0786 29.624C22.7986 29.624 23.4226 29.384 23.9506 28.888C24.4946 28.392 24.7666 27.72 24.7666 26.84C24.7666 25.96 24.4946 25.288 23.9506 24.792C23.4226 24.296 22.7986 24.056 22.0786 24.056C21.3746 24.056 20.7506 24.296 20.2066 24.792C19.6786 25.288 19.4066 25.96 19.4066 26.84C19.4066 27.72 19.6786 28.392 20.2066 28.888C20.7506 29.384 21.3746 29.624 22.0786 29.624ZM31.9361 31.16C30.9761 31.16 29.9841 30.792 29.1681 30.104C28.3521 29.416 27.8081 28.232 27.8081 26.84C27.8081 25.448 28.3521 24.264 29.1681 23.576C29.9841 22.888 30.9761 22.52 31.9361 22.52C33.2641 22.52 34.3201 23.256 34.7041 24.04H34.8001V22.68H36.5281V31H34.8001V29.64H34.7041C34.3201 30.424 33.2641 31.16 31.9361 31.16ZM32.1601 29.624C32.8801 29.624 33.5041 29.384 34.0321 28.888C34.5761 28.392 34.8481 27.72 34.8481 26.84C34.8481 25.96 34.5761 25.288 34.0321 24.792C33.5041 24.296 32.8801 24.056 32.1601 24.056C31.4561 24.056 30.8321 24.296 30.2881 24.792C29.7601 25.288 29.4881 25.96 29.4881 26.84C29.4881 27.72 29.7601 28.392 30.2881 28.888C30.8321 29.384 31.4561 29.624 32.1601 29.624ZM43.7423 24.488L42.3023 24.888C42.0143 24.232 41.5503 23.912 40.9263 23.912C40.2703 23.912 39.7903 24.28 39.7903 24.84C39.7903 25.304 40.1103 25.656 40.7503 25.88L41.6623 26.2C43.2463 26.76 44.0463 27.32 44.0463 28.648C44.0463 29.432 43.7423 30.056 43.1343 30.504C42.5423 30.936 41.8063 31.16 40.9423 31.16C39.2943 31.16 38.1263 30.312 37.8063 28.888L39.1823 28.472C39.4383 29.24 40.0943 29.768 40.9423 29.768C41.7263 29.768 42.3663 29.32 42.3663 28.68C42.3663 28.216 41.9983 27.848 41.2783 27.576L40.3343 27.24C38.8623 26.712 38.1263 25.912 38.1263 24.824C38.1263 24.136 38.3823 23.592 38.9103 23.16C39.4383 22.728 40.0943 22.52 40.8623 22.52C42.2703 22.52 43.2783 23.272 43.7423 24.488ZM50.0033 22.52C50.8673 22.52 51.6033 22.824 52.2113 23.448C52.8193 24.072 53.1233 24.984 53.1233 26.184V31H51.3953V26.28C51.3953 24.792 50.5633 24.04 49.4113 24.04C48.7713 24.04 48.2433 24.264 47.8273 24.712C47.4273 25.144 47.1873 25.592 47.1393 26.024V31H45.4113V19.688H47.1393V24.408C47.3153 23.928 48.1793 22.52 50.0033 22.52ZM58.7059 22.52C60.3219 22.52 61.5059 23.192 62.2579 24.536L60.9139 25.144C60.3859 24.424 59.6499 24.056 58.7219 24.056C58.0339 24.056 57.4259 24.312 56.8819 24.808C56.3539 25.304 56.0819 25.976 56.0819 26.856C56.0819 27.72 56.3539 28.392 56.8819 28.888C57.4259 29.384 58.0339 29.624 58.7219 29.624C59.6659 29.624 60.3859 29.272 60.9139 28.552L62.2739 29.16C61.5219 30.488 60.3219 31.16 58.7059 31.16C56.8179 31.16 54.3859 29.752 54.4019 26.856C54.4019 25.464 54.9939 24.28 55.8419 23.592C56.7219 22.904 57.7299 22.52 58.7059 22.52ZM68.222 22.52C69.086 22.52 69.822 22.824 70.43 23.448C71.038 24.072 71.342 24.984 71.342 26.184V31H69.614V26.28C69.614 24.792 68.782 24.04 67.63 24.04C66.99 24.04 66.462 24.264 66.046 24.712C65.646 25.144 65.406 25.592 65.358 26.024V31H63.63V19.688H65.358V24.408C65.534 23.928 66.398 22.52 68.222 22.52ZM76.8446 22.52C78.7326 22.52 81.2766 23.96 80.8926 27.48H74.3166C74.5726 28.904 75.6606 29.688 77.0526 29.688C77.9326 29.688 78.7006 29.432 79.3566 28.92L80.3326 29.848C79.5486 30.728 78.4446 31.16 77.0046 31.16C76.2846 31.16 75.5966 31.016 74.9406 30.712C73.6446 30.088 72.6206 28.696 72.6206 26.856C72.6206 25.464 73.1966 24.28 74.0286 23.592C74.8766 22.904 75.8846 22.52 76.8446 22.52ZM76.8446 24.008C75.6926 24.008 74.5886 24.808 74.3326 26.2H79.3406C79.2606 25.512 78.9726 24.968 78.4766 24.584C77.9806 24.2 77.4366 24.008 76.8446 24.008ZM88.8459 22.68H90.6219L86.9899 31H85.4539L81.8219 22.68H83.5979L86.2219 28.872L88.8459 22.68Z" fill="#FAFAFA"/>
</svg>
